<svg width="50" height="50" viewBox="0 0 50 50" fill="none" xmlns="http://www.w3.org/2000/svg">
<circle cx="25" cy="25" r="25" fill="white"/>
<path d="M23.2773 30.5215L27.7773 26.0215C27.9297 25.8809 28.0059 25.7109 28.0059 25.5117C28.0059 25.3008 27.9297 25.1191 27.7773 24.9668L23.2773 20.4668C23.1367 20.3262 22.9609 20.2559 22.75 20.2559C22.5391 20.2559 22.3633 20.3262 22.2227 20.4668C22.0703 20.6191 21.9941 20.8008 21.9941 21.0117C21.9941 21.2109 22.0703 21.3809 22.2227 21.5215L26.1953 25.4941L22.2227 29.4668C22.0703 29.6191 21.9941 29.8008 21.9941 30.0117C21.9941 30.2109 22.0703 30.3809 22.2227 30.5215C22.3633 30.6738 22.5391 30.75 22.75 30.75C22.9609 30.75 23.1367 30.6738 23.2773 30.5215Z" fill="#212529"/>
</svg>
