<svg width="50" height="50" viewBox="0 0 50 50" fill="none" xmlns="http://www.w3.org/2000/svg">
<circle opacity="0.2" cx="25" cy="25" r="25" fill="white"/>
<path d="M27.7773 29.4668L23.8047 25.4941L27.7773 21.5215C27.9297 21.3809 28.0059 21.2109 28.0059 21.0117C28.0059 20.8008 27.9297 20.6191 27.7773 20.4668C27.6367 20.3262 27.4609 20.2559 27.25 20.2559C27.0391 20.2559 26.8633 20.3262 26.7227 20.4668L22.2227 24.9668C22.0703 25.1191 21.9941 25.3008 21.9941 25.5117C21.9941 25.7109 22.0703 25.8809 22.2227 26.0215L26.7227 30.5215C26.8633 30.6738 27.0391 30.75 27.25 30.75C27.4609 30.75 27.6367 30.6738 27.7773 30.5215C27.9297 30.3809 28.0059 30.2109 28.0059 30.0117C28.0059 29.8008 27.9297 29.6191 27.7773 29.4668Z" fill="white"/>
</svg>

