<svg width="4" height="11" viewBox="0 0 4 11" fill="none" xmlns="http://www.w3.org/2000/svg">
<path d="M2.34 3.58C1.9 3.58 1.54667 3.44667 1.28 3.18C1.01333 2.91333 0.88 2.56667 0.88 2.14C0.88 1.7 1.01333 1.34667 1.28 1.08C1.54667 0.813333 1.9 0.679999 2.34 0.679999C2.76667 0.679999 3.11333 0.813333 3.38 1.08C3.64667 1.34667 3.78 1.7 3.78 2.14C3.78 2.56667 3.64667 2.91333 3.38 3.18C3.11333 3.44667 2.76667 3.58 2.34 3.58ZM2.34 10.22C1.9 10.22 1.54667 10.0867 1.28 9.82C1.01333 9.55333 0.88 9.20667 0.88 8.78C0.88 8.34 1.01333 7.98667 1.28 7.72C1.54667 7.45333 1.9 7.32 2.34 7.32C2.76667 7.32 3.11333 7.45333 3.38 7.72C3.64667 7.98667 3.78 8.34 3.78 8.78C3.78 9.20667 3.64667 9.55333 3.38 9.82C3.11333 10.0867 2.76667 10.22 2.34 10.22Z" fill="#212529"/>
</svg>
